<?xml version="1.0" encoding="UTF-8"?><svg id="a" xmlns="http://www.w3.org/2000/svg" viewBox="0 0 414.43 426.12"><g id="b"><path d="M47.13,35.36C47.29,9.83,67.75-1.3,83.19.12c13.89,1.27,29.82,12.24,30.49,35.03h186.88c.06-11.79,4.27-21.52,13.64-28.69,6.55-5.01,14.01-6.7,22.15-6.31,16.89.8,27.95,13.26,30.69,35.18,2.88,0,5.85.15,8.79-.02,23.88-1.38,38.74,18.64,38.6,38.81-.36,52.53-.3,105.05-.32,157.58-.02,51.53.06,103.06.12,154.59.02,13.94-5.32,25.24-16.75,33.31-6.6,4.66-14.19,6.5-22.26,6.49-62.76-.06-125.51-.13-188.27-.13-49.03,0-98.06.06-147.1.16-23.56.04-39.75-15.99-39.76-39.65-.03-43.67,0-87.34-.01-131.01C.06,194.94.04,134.43,0,73.91c0-14.6,5.74-26.07,18.26-33.87,5.32-3.32,11.22-4.68,17.45-4.68,3.73,0,7.46,0,11.42,0ZM395.79,150.86H18.72c-.06.88-.13,1.37-.13,1.86-.03,77.74-.08,155.47-.03,233.21,0,2.54.59,5.27,1.6,7.6,4.04,9.27,11.21,13.91,21.42,13.91,66.13-.02,132.26,0,198.38,0,44.17,0,88.34-.01,132.5-.02,6.45,0,12.35-1.53,17.02-6.32,4.96-5.08,6.28-11.38,6.28-18.22-.02-71.62,0-143.24.01-214.87,0-5.6,0-11.21,0-17.15ZM47.71,53.69c-2.42,0-4.37.06-6.32,0-14.28-.52-22.64,7.25-22.79,21.53-.16,14.72-.14,29.45,0,44.17.02,2.4.65,5,1.71,7.15,2.7,5.49,7.9,5.64,13.18,5.63,64.5-.07,129-.1,193.5-.11,51.9-.01,103.8.02,155.69,0,9.25,0,13.1-3.99,13.11-13.31.03-14.6.24-29.2-.16-43.79-.11-4.04-1.32-8.51-3.4-11.94-5.85-9.63-15.26-10.38-25.69-8.67,0,4.25.14,8.47-.02,12.68-.95,24.01-23.4,39.33-45.27,30.43-13.27-5.4-19.93-16.03-20.38-30.39-.13-4.31-.02-8.63-.02-13.06H112.92c0,5.27.24,10.24-.05,15.19-.62,10.76-5.37,19.43-14.38,25.36-21.38,14.06-49.35-.59-50.74-26.51-.24-4.58-.03-9.18-.03-14.32ZM93.73,50.68s.02,0,.03,0c0-2.99.03-5.98,0-8.97-.04-3.11.06-6.25-.26-9.33-.73-7.13-6.38-12.47-13.04-12.6-6.5-.13-12.89,4.82-13.29,11.73-.68,11.79-.92,23.66-.39,35.45.37,8.3,6.98,13.16,15.06,12.65,7.46-.48,11.82-5.7,11.89-14.34.04-4.86,0-9.72,0-14.58ZM320.26,50.24s-.04,0-.06,0c0,2.74,0,5.48,0,8.22,0,2.74-.09,5.48,0,8.21.22,6.97,5.71,12.64,12.45,12.95,7.92.36,14.24-4.32,14.53-11.78.44-11.56.48-23.15.07-34.71-.27-7.8-6.89-13.48-14.03-13.12-7.46.38-12.78,6.13-12.94,14.16-.11,5.35-.02,10.7-.02,16.06Z"/><path d="M228.44,355c-6.45,1.36-12.14,2.72-17.89,3.73-8.67,1.53-14.5-4.9-12.48-13.49.89-3.8,3.41-6.12,6.92-7.17,3.27-.97,6.37.33,8.41,2.83,1.57,1.92,2.9,2.08,5.07,1.55,5.31-1.3,10.7-2.29,16.03-3.47,5.29-1.18,8.9.87,10.11,6.11,2.03,8.81-.43,16.87-4.91,24.3-9.33,15.48-28.5,21.81-45.34,15.28-16.61-6.44-26.66-24.43-23.41-41.88,4.58-24.55,27.29-37.67,51.08-29.62,1.06.36,2.84-.05,3.74-.78,3.4-2.73,6.51-5.81,9.84-8.62,3.31-2.78,7.1-2.7,9.72-.03,2.76,2.82,2.85,6.38-.39,9.63-5.1,5.11-10.42,10.03-15.85,14.79-3.16,2.77-6.75,3.3-10.68.96-10.73-6.38-23.53-2.96-29.96,7.84-5.65,9.48-3.52,21.9,5.01,29.16,8.51,7.25,20.54,7.27,29.1-.03,3.19-2.72,5.36-6.07,5.86-11.09Z"/><path d="M223.71,206.31c-.06,8.21-7.08,15.07-15.44,15.09-8.31.02-14.85-6.65-14.77-15.06.09-8.99,6.58-15.37,15.41-15.17,8.35.2,14.86,6.85,14.79,15.14Z"/><path d="M73.91,221.3c-8.12.1-14.63-6.33-14.8-14.64-.18-8.75,6.39-15.43,15.2-15.46,8.14-.02,14.93,6.75,15.03,15,.09,8.01-7.04,14.99-15.43,15.1Z"/><path d="M193.48,278.05c.12-8.78,6.48-15.11,15.13-15.06,8.22.05,15.19,7.24,14.99,15.45-.2,8.11-7.13,14.65-15.41,14.56-8.63-.09-14.83-6.39-14.7-14.95Z"/><path d="M275.33,221.3c-8.23.01-14.6-6.43-14.59-14.76.01-9.03,6.4-15.48,15.21-15.35,8.34.12,14.9,6.77,14.89,15.08-.01,8.06-7.19,15.02-15.51,15.03Z"/><path d="M141.42,221.29c-8.33,0-14.85-6.57-14.91-15.02-.06-8.42,6.74-15.14,15.3-15.12,7.96.02,14.88,7.13,14.85,15.27-.03,8.01-7.05,14.86-15.24,14.86Z"/><path d="M327.55,206.14c.08-8.56,6.48-14.95,14.93-14.91,8.5.04,15.15,6.8,15.05,15.28-.1,8.27-7.1,14.83-15.73,14.73-8.12-.1-14.33-6.67-14.25-15.1Z"/><path d="M73.78,293.03c-8.19-.02-14.52-6.45-14.64-14.84-.11-8.61,6.36-15.05,15.19-15.1,8.19-.05,14.94,6.71,15.01,15.01.06,8.1-7.08,14.95-15.56,14.92Z"/><path d="M341.74,292.97c-8.11-.06-14.36-6.7-14.22-15.09.14-8.54,6.53-14.86,15.02-14.86,8.32,0,15.17,7,15.02,15.35-.15,8.22-7.13,14.66-15.82,14.6Z"/><path d="M141.22,292.98c-8.31,0-14.82-6.63-14.75-15.02.07-8.42,6.85-15,15.4-14.97,7.93.04,14.77,7.2,14.66,15.36-.11,8.04-6.99,14.62-15.31,14.63Z"/><path d="M275.04,293.05c-8.02-.04-14.2-6.38-14.25-14.61-.05-9,6.31-15.51,15.07-15.43,8.25.08,14.9,6.74,14.98,15,.07,8.22-7.13,15.08-15.79,15.04Z"/><path d="M89.42,349.65c0,7.86-7.53,15.09-15.63,15.02-7.92-.07-14.63-6.98-14.59-15.02.04-8.78,6.38-15.02,15.19-14.96,8.32.05,15.04,6.74,15.03,14.96Z"/><path d="M260.87,349.46c.16-9.05,6.18-14.89,15.19-14.77,8.26.11,14.95,7.02,14.7,15.18-.25,8.08-7.27,14.83-15.39,14.79-8.49-.04-14.65-6.51-14.5-15.21Z"/><path d="M342.31,334.73c8.68.04,15.33,6.66,15.14,15.08-.17,7.83-7.3,14.73-15.35,14.86-7.87.13-14.64-6.71-14.69-14.84-.05-8.88,6.12-15.15,14.9-15.11Z"/><path d="M141.82,334.69c8.14.06,14.86,7.06,14.69,15.29-.17,7.84-7.12,14.51-15.18,14.56-8.09.05-14.87-6.97-14.74-15.24.14-8.53,6.54-14.67,15.23-14.61Z"/></g></svg>