<?xml version="1.0" encoding="UTF-8"?><svg id="a" xmlns="http://www.w3.org/2000/svg" viewBox="0 0 297.7 329.03"><g id="b"><path d="M258.46,307.01c-.87-9.31-1.66-17.81-2.5-26.86-6.11,2.2-11.79,4.23-17.46,6.28-1.52.55-3.01,1.22-4.54,1.73-9.67,3.26-18.67,7.1-26.56,14.36-10.08,9.27-23.48,12.12-36.84,14.11-2.02.3-4.12,1.4-5.78,2.66-7.06,5.36-13.94,11.05-23.7,9.47-1.22-.2-3.28-1.22-3.28-1.86,0-1.51.69-3.3,1.71-4.43.91-1.02,2.61-1.35,3.99-1.91,17.45-7.1,28.06-19.74,31.13-38.46.4-2.41.66-4.64-1.37-6.92-1.07-1.2-.6-3.89-.55-5.9.04-1.75,1.01-3.61.65-5.21-5.29-23.29-19.78-38.9-41.19-48.47-14.25-6.37-29.04-7.72-44.23-3.88-1.21.31-2.42.63-3.66.79-3.04.4-5.34-.95-5.97-3.83-.6-2.73,1.3-4.36,3.88-5.06,11.31-3.05,22.84-4.68,34.41-2.53,5.4,1,9.5.39,12.98-3.76,3.8-4.52,4.93-9.66,3.42-15.38-1.6-6.03-5.33-10.58-9.82-14.71-1.11-1.02-1.88-2.76-2.16-4.28-.52-2.81-.29-5.76-.88-8.54-.49-2.29-1.7-4.43-2.66-6.79-.86.58-1.21.7-1.21.83-.18,15.61-16.82,22.13-29.6,18.19-7.56-2.33-13.44-6.94-18.73-12.54-3.6-3.81-7.22-7.59-10.65-11.54-2.01-2.31-3.98-2.32-6.58-1.13-10.5,4.83-15.8,12.9-15.78,24.49.03,16.21,0,32.43,0,48.64,0,13.85.15,27.69-.02,41.53-.11,9.27,3.24,15.94,12.02,20,22.06,10.21,43.93,20.84,67.19,28.11,5.08,1.59,10.46,2.32,15.76,3.04,6.35.86,12.4-.71,18.12-3.45,1.5-.72,2.75-1.96,3.93-3.86-1.87-.18-3.9.02-5.57-.65-1.9-.77-4.16-1.99-4.97-3.65-.49-1.01,1.15-3.5,2.39-4.81,1.49-1.58,3.56-2.6,6.04-4.32-7.53-1.39-14.34-2.04-20.9,1.54-2.63,1.43-5.2,2.96-7.8,4.44-2.75,1.57-5.4,1.53-8.07-.3-16.44-11.29-32.88-22.58-49.37-33.8-2.45-1.67-3.16-3.75-3.14-6.65.19-21.2.23-42.4.32-63.61,0-1-.06-2.01.1-2.99.47-2.81,2.18-4.66,5.01-4.58,2.89.08,4.49,2.04,4.52,4.95.06,6.24.04,12.47.03,18.71-.03,14.72-.15,29.43-.02,44.15.01,1.57.96,3.73,2.19,4.6,14.12,10.04,28.41,19.84,42.58,29.8,2.05,1.44,3.46.55,5.02-.57,10.17-7.31,21.37-7.57,32.9-4.52,6.23,1.65,7.61,4.54,5.7,10.55-.78,2.45-1.12,4.33,1.85,5.84,2.91,1.48,3.25,5.69,1.08,9.31-3.31,5.5-8.56,8.64-14.3,10.94-8.39,3.37-17.01,2.95-25.77,1.4-15.53-2.75-29.75-9.11-44.01-15.39-11.86-5.23-23.66-10.59-35.49-15.88-.55-.25-1.13-.41-2.04-.74-2.07,3.74-4.1,7.39-6.11,11.01-.4-.18-.54-.2-.63-.28-6.68-5.52-6.79-5.58-2.93-13.05,1.24-2.4,1.32-4.09-.29-6.37-3.48-4.93-4.83-10.62-4.84-16.62-.02-31.06-.11-62.11,0-93.17.06-16.33,8.44-27.22,23.15-33.43,10.36-4.37,15.35-12.17,15.96-23.17.14-2.51-.56-3.95-2.9-5.34-3.69-2.19-7.52-4.64-10.22-7.87-4.65-5.57-5.41-12.25-2.34-18.98,3.1-6.79,9.04-9.14,15.97-8.82,9.6.44,18.24-1.64,25.86-7.72,4.63-3.7,7.24-8.39,8.46-14.1.37-1.73,1.14-3.69,2.38-4.84,2.19-2.05,5.74-.62,6.93,3.04,4.33,13.31,13.98,21.42,26.75,27.72-.33-3.12-.39-5.88-.94-8.55-3.02-14.59-10.93-25.41-25.33-30.26-4.3-1.45-9.31-.78-14-1.12-1.94-.14-4.23.22-5.77-.67-15.35-8.84-36.27,3.02-41.25,16.19-1.74,4.6-2.83,9.55-3.49,14.44-.71,5.23-2.17,9.87-5.65,13.94-5.7,6.64-8.53,14.25-7.2,23.15,1.74,11.66-2.58,21.1-10.33,29.6-3.72,4.08-6.95,8.81-9.5,13.72-3.33,6.42-2.85,13.38.04,19.92,1.9,4.31,4.37,8.39,6.77,12.47,3.84,6.53,5.93,13.41,4.89,21.07-.74,5.39-3.01,10.06-6.82,13.83-1.43,1.41-3.49,2.61-5.43,2.95-1.35.24-3.62-.74-4.33-1.89-.7-1.13.04-3.16.19-4.78.02-.2.31-.38.46-.58,8.06-10.05,8.45-15.49,1.92-26.76-1.69-2.91-3.51-5.75-5.05-8.74-7.37-14.33-5.68-27.95,3.61-40.78,2.33-3.22,5.12-6.11,7.81-9.06,4.8-5.25,7.28-11.25,6.24-18.46-1.67-11.63,1.45-21.82,8.47-31.22,2.26-3.02,3.65-7.15,4.16-10.95,3.02-22.49,16.15-36.57,37.98-40.05,6.7-1.07,13.14.18,19.43,2.51,1.36.5,2.91,1,4.29.83,21.19-2.51,40.53,12.85,46.06,33.63.93,3.48,1.94,7.08,1.97,10.63.05,7.71,1.62,15.02,3.83,22.35,2.63,8.72.51,17.1-3.33,25.01-3.63,7.47-2.62,14.17,2.39,20.69,3.11-2.57,5.83-5.68,9.24-7.44,5.7-2.94,11.8-5.12,17.81-7.42,2.66-1.02,5.56-1.4,8.27-2.32,6.25-2.15,7.73-8.8,3.01-13.45-9.28-9.17-13.69-20.43-13.89-33.29-.14-9.08.39-18.16.49-27.25.01-1.14-.52-2.43-1.17-3.4-7.78-11.56-4.28-27.42,5.04-36.7,1.14-1.13,2.45-2.24,3.89-2.86,2.46-1.06,4.99-1.15,6.34,1.82,2.83,6.24,6.08,8.12,12.99,7.24,4.2-.54,8.37-1.37,12.59-1.72,9.06-.76,18.16-.07,24.88,6.61,4.96,4.93,10.11,9.57,15.15,14.35,7.44,7.05,7.62,16.48,4.48,25.78-1.45,4.3-2.08,8.26-1.53,12.93,1.07,9.14-2.5,16.92-11.01,21.09-5.19,2.55-7.15,6.02-6.89,11.43.15,3.23.12,6.49-.06,9.73-.21,3.85,1.54,6,5.12,7.16,7.11,2.29,14.18,4.74,21.26,7.13,21.24,7.18,31.67,23.01,33.17,44.38,1.29,18.38.63,36.89.81,55.35.06,5.61-.17,11.24.11,16.84.85,16.94-6.97,25.94-21.64,32.06-2.64,1.1-5.33,2.15-8.06,2.97-2.06.62-2.75,1.7-2.52,3.81.6,5.45.87,10.94,1.62,16.37.43,3.11-.34,5.23-3.04,6.86-1.76,1.05-3.31,2.47-5.53,4.16ZM254.39,213.92q-6.48-1.41-6.44-6.59c.04-9.48.03-18.96.09-28.43.02-3.92,1.69-6.07,4.54-6.05,2.9.02,4.65,2.19,4.67,5.95.05,6.73.02,13.47.07,20.2.01,1.7.17,3.4.27,5.36,9.58,0,18.79.05,28-.1.74-.01,2.09-1.43,2.08-2.19-.13-11.84.37-23.76-.89-35.49-1.81-16.82-11.02-28.54-27.49-33.9-4.86-1.58-9.84-2.83-14.58-4.69-3.39-1.33-5.15-.56-7.23,2.42-11.65,16.68-35.78,18.44-48.78,2.96-4.42-5.27-7.99-5.8-13.88-4.02-8.29,2.5-15.35,6.49-20.62,13.36-.9,1.17-1.73,3.03-1.47,4.33,2.27,11.17-1.24,20.85-6.9,30.21-1.39,2.29-2.21,5.27-2.25,7.95-.09,5.29-1.19,10.14-4.05,14.55-1.45,2.24-3.12,4.34-4.58,6.36,5.94,3.22,11.79,6.39,18.14,9.84,0-7.45,0-14.5,0-21.56,0-5.24-.07-10.48.04-15.71.07-3.31,2.2-5.6,4.84-5.58,2.85.02,4.6,2.08,4.71,5.57.03,1.12,0,2.24-.01,3.37-.11,13.09-.29,26.19-.26,39.28,0,1.67.69,3.72,1.8,4.93,8.04,8.81,13.92,18.79,17.28,30.25.26.9.69,1.75,1.05,2.67,9.76-2.57,19.03-2.38,28.11,1.59.95.41,2.5.3,3.41-.21,12.81-7.22,25.57-14.54,38.3-21.9.85-.49,1.93-1.57,1.94-2.4.15-7.45.09-14.91.09-22.32ZM176.46,304.71c12.52-1.71,23.44-5.61,31.38-15.43,1.18-1.46,2.95-2.73,4.71-3.39,12.26-4.56,24.62-8.84,36.88-13.41,9.56-3.56,19.16-7.1,28.48-11.24,6.73-2.99,9.94-8.8,9.93-16.25,0-4.99,0-9.98-.01-14.97,0-5.45,0-10.9,0-16.4h-23.86c0,8.11-.25,15.84.1,23.55.19,4.05-1.22,6.45-4.63,8.38-14.31,8.11-28.55,16.35-42.79,24.6-2.84,1.65-5.5,1.72-8.46.21-5.82-2.97-12.02-3.98-18.53-2.99-6.52.99-6.86,1.47-5.06,7.84.06.21.29.38.44.56.11-.31.22-.62.33-.93,2.39.8,5.45.95,7.02,2.55,2.45,2.51.78,5.83-.96,8.22-2.55,3.51-5.74,6.54-8.45,9.95-2.33,2.93-4.37,6.1-6.53,9.16ZM181.29,47.42c0,2.78-.06,4.63.01,6.47.29,7.34.16,14.74,1.1,22,.6,4.58,2.3,9.22,4.41,13.37,8.2,16.08,27.28,18.17,38.89,4.4,1.91-2.27,3.17-5.1,5.1-7.35,1.54-1.79,3.57-3.2,5.52-4.59,2.29-1.64,5.21-2.64,7.01-4.67,4.72-5.3,2.71-13.31-3.66-14.73-6.81-1.52-9.92-6.09-11.65-12.22-.42-1.5-.83-2.99-1.38-4.96-14.84,6.48-29.54,8.87-45.36,2.27ZM104.26,59.11c-.2.38-.38.86-.67,1.26-7.11,10.01-17.19,14.84-29.04,16.37-3.56.46-7.21.16-10.82.33-4.52.22-7.75,3.77-6.42,8.03.92,2.96,3.02,6.94,5.49,7.75,6.64,2.19,10.55,6.53,13.56,12.33.68,1.3,1.75,2.42,2.73,3.55,11.39,13.21,28.67,12.41,38.89-1.75,5.43-7.52,6.7-16.15,7.3-25.1.22-3.35-.28-5.52-3.63-7.04-2.55-1.16-4.89-3.03-6.96-4.97-3.5-3.29-6.71-6.88-10.44-10.76ZM180.59,13.69c-7.12,9.16-4.38,20.62,5.97,25.24,1.47.66,3.01,1.19,4.56,1.65,9.86,2.91,19.26.91,28.42-2.86,11.28-4.65,15.35-2.07,17.52,8.94,1.02,5.17,3.89,7.22,9.35,7.91,4.68-9.18,2.63-17.77-5.64-22.18-3.47-1.85-6.27-3.6-7.89-7.69-.97-2.46-4.27-4.55-7-5.64-3.14-1.25-6.8-1.71-10.21-1.63-5.09.12-10.16.99-15.23,1.58-7.34.86-14.16-.16-19.86-5.33ZM137.78,170.34c5.12-6.48,7.24-13.08,5.15-20.18-1.59-5.42-4.24-10.58-6.83-15.66-3.42-6.71-4.39-13.33-1.34-20.46,1.76-4.11,3.32-8.35,4.42-12.67,1.6-6.32-.28-12.13-3.67-17.57-.62,1.59-.8,3.14-.98,4.7-2.17,18.71-10.3,32.88-29.53,38.48-2.51.73-2.74,2.48-1.14,3.77,2.14,1.73,4.71,3.27,7.34,3.97,10.38,2.76,17.18,9.09,20.66,19.19,1.82,5.28,3.79,10.51,5.92,16.41ZM63.59,135.48c5.2,5.29,10.86,11.59,17.13,17.19,2.74,2.45,6.61,3.97,10.23,5,4.44,1.26,8.89.49,12.65-2.66,3.08-2.58,3.03-6.05,2.96-9.59-.06-3.13-2.9-2.64-4.6-3.48-4.56-2.24-7.53-5.63-8.48-10.67-.27-1.44-.43-2.9-.65-4.46-7.91-.63-13.85-4.79-18.78-9.61-3.34,5.83-6.57,11.47-10.46,18.26ZM198.22,110.82c-.93,3.28-1.34,6.29-2.61,8.89-2.18,4.47-2.21,5.6,1.48,9.11,8,7.61,22.29,7.1,30.5-1.12,2.43-2.43,4.68-4.86,1.48-8.48-.87-.99-.94-2.79-1.14-4.25-.38-2.8-.6-5.62-.93-8.88-9.06,6.06-18.61,7.98-28.77,4.72Z"/><path d="M90.76,47.45c-.76,1.64-1.01,3.03-1.84,3.79-3.06,2.84-6.19,5.64-9.55,8.11-2.1,1.55-4.39.87-5.79-1.35-1.39-2.2.16-3.63,1.71-5.04,2.83-2.58,5.48-5.35,8.41-7.81.98-.82,2.85-1.61,3.79-1.21,1.35.59,2.21,2.28,3.27,3.5Z"/></g></svg>