<?xml version="1.0" encoding="UTF-8"?><svg id="a" xmlns="http://www.w3.org/2000/svg" viewBox="0 0 616.67 925.6"><path d="M386.21,876.22c-30.04-3.38-67.63-29.26-92.32-46.4-37.92-26.33-73.22-56.24-106.54-88.07-17.73,31.99-44.91,69.41-48.13,106.89-.99,11.49,3.28,44.29-4.16,51.04-7.5,6.8-16.86,2.23-18.44-7.26-3.62-21.76,1.01-57.33,7.7-78.5,10.68-33.79,31.22-60.64,47.48-91.18-10.55-14.66-17.21-28.47-22.29-45.8-18.96-64.72-24.68-134.3-45.08-198.38-18.24-18.41-33.93-39.35-41.69-64.47l-7.04-29.03c-10.43,24.21-20.97,47.27-26.47,73.33-21.39,101.34,10.96,194.53,80.93,267.81,5.63,5.89,25.68,20.64,26.16,27.66.69,10.1-9.2,14.38-17.77,10.64-3.51-1.53-23.51-20.73-27.55-24.85C6.72,653.56-23.41,525.67,19.25,411.59c9.06-24.22,21.5-47.8,39.98-66.15l3.52,7.04c4.27-18.23,16.8-36.08,31.25-47.67-10.58-31.71-15.19-56.73,1.6-87.22,1.85-3.36,8.82-11.33,9.4-13.35.78-2.71-1.37-13.25-1.23-18.14.71-24.68,12.87-50.09,30.42-67.24,7.74-7.56,20.59-14.09,27.67-21.88,8.7-9.57,14.05-26.57,21.5-37.95,77.63-118.67,288.19-43.22,257.55,91.94-6.52,28.77-17.38,32.74-33.47,52.88-11.46,14.35.93,36.85-8.51,49.52-7.73,10.38-19.68,4.61-26.17,7.81-1.99.98-3.02,4.75-4.91,6.42-2.09,1.85-5.46,2.23-7.05,4.28s-1.09,5.17-3.67,7.66c-3.35,3.23-9.41,2.75-10.97,3.88-.67.48-4.04,10.97-7.38,14.57-8.55,9.26-26.47,7.93-37.12,3.17-2.6-1.16-12.41-9.16-13.8-8.11-24.85,42.12,11.53,89.23,39.58,119.64,30.98,33.61,81.92,57.08,68.41,112.21-1.84,7.5-5.42,14.68-8.92,21.49,19.13,6.59,39.18,22.45,46.97,41.53,2.2,5.4,3.15,15.32,5.32,18.74,1.7,2.69,11.11,8.28,14.27,11.21,60.63,56.4,85.1,140.09,33.71,212.11-19.94,27.94-42.1,32.64-49.16,71.16-1.51,8.26,1.79,22.63-11.08,24.35-19.71,2.63-9.73-39.51-4.63-49.26-11.51-.93-24.82,1.27-36.1,0ZM220.72,126.83c23-24.61,49.61-38.7,83.57-43.12,23.01-2.99,54.56,3.34,71.07-16.69,6.68-8.1,9.95-12.26,1.53-19.45-48.41-41.35-130.82-31.7-170.32,17.69-11.34,14.17-17.03,35.48-28.58,47.86-5.86,6.28-15.88,11.4-22.45,17.18-16.81,14.78-29.16,34.88-28.36,57.99,12.84-9.66,20.75-17.93,29.62-31.25,4.88-7.33,9.25-24.13,21.37-14.07,11.25,9.34-6.88,33.97-14.17,42.51-16.81,19.69-47.16,29.3-54.43,55.98-4.7,17.27-.58,30.45,2.76,47.33,1.04,1.11,5.66-2.77,6.93-3.67,25.29-17.95,49.1-40.42,60.23-69.99,13.37-35.53,13.16-58.24,41.23-88.28ZM99.56,435.99c-.95-11.75-3.4-22.75-2.8-34.66,4.02-80.52,72.98-83.89,109.3-139.83,27.21-41.91,12.27-89.8,61.52-122.49,39.61-26.29,82.94-5.63,117.47-24.08,10.74-5.74,24.74-21.59,22.83-34.56-.34-2.33-4.27-10.13-6.12-10.98-2.66-1.21-5.84,9.15-7.77,10.61-29.32,35.76-75.59,17.68-115.4,33.23-78.68,30.75-58.53,103.1-105.38,155.07-37.37,41.45-98.44,55.48-91.86,124.34,1.12,11.73,6.69,26.65,12.81,36.73,1.12,1.84,3.53,5.66,5.39,6.62ZM382.67,244.91c2.31-7.89-1.69-14.03-1.5-21.96.81-34.08,27.04-42.01,36.12-71.53,3.82-12.43,4.73-25.35,2.17-38.15l-11.43,13.32c-48.9,40.52-130.94-12.32-157.7,73.03-12.78,40.74-10.19,63.34-43.11,97.02-6.33,6.48-19.01,13.86-24.16,19.72-1.09,1.23-1.84,1.56-1.38,3.56,24.68,2.09,43.13,26.51,58.76,43.87,24.11,26.77,44.81,60.03,79.96,73.61-32.04-35.26-74.08-81.02-61.27-132.74,1.99-8.04,15.15-36.97,22.01-40.34,7.14-3.5,12.36,6.38,17.36,10.27,7.31,5.68,15.14,11.93,25.14,9.64,8.89-2.04,6.4-18.03,19.41-16.69.71-.92-7.63-6.16-5.02-11.29,4.93-7.05,15.45,1.4,21.11-2.73,3.49-2.55-1.67-11.33,10.24-12.83,6.56-.83,7.65,3.29,13.3,4.22ZM356.7,551.57c21.77-19.92,25.07-56.89,3.37-78.1-11.04-10.8-22.81-8-36.86-11.27-52.67-12.25-82.89-69.5-118.86-104.79-15.84-15.54-33.92-24.06-55.26-12.73-43.6,23.14-26.13,92.47-19.35,131.22,10.05,57.41,23.14,118.68,37.05,175.28,2.51,10.22,4.9,22.86,8.54,32.51,16.61,44.01,99.01,105.2,138.37,131.99,40.26,27.39,90.82,60.75,136.91,23.76-6.07-1.62-40.22-3.01-33.31-14.19,5.25-4.71,13.18-.31,19.83.08,1.54.09,5.36.92,4.98-1.45-10.43-5.5-20.38-10.39-32.2-12.4-14.75-2.5-28.07,1.33-42.13-.33-6.98-.82-14.91-10.36-19.81-15.58-31.28-33.38-66-74.95-94.07-111.18-18.56-23.96-24.89-29.08-28.34-60.84-2.55-23.46-2.15-47.39-5.65-70.78,1.07-38.49-8.57-80.98-7.17-118.93.17-4.6-.08-7.26,3.81-10.37,10.62-8.47,17.5,1.35,18.9,11.84,8.65,64.87,6.01,135.43,14.25,200.91,1.83,11.78,39.68,56.02,49.5,67.99,23.29,28.39,48.13,55.76,72.22,83.48,5.24,4.62,11.04.87,16.23.79,28.31-.43,60.67,4.9,77.83,29.71,53.59-61.99,20.05-153.98-43.08-194.7-16.04-2.1-43.59,9.08-56.7-4.17-1.72-1.74-3.8-7.01-4.57-7.46-1.45-.86-5.43-.4-7.95-1.25-8.12-2.75-8.97-10.2-13.76-16.05-15,8.81-31.16,16.29-48.46,19.39-8.62,1.54-27.4,5.68-30.82-5.18-6.36-20.19,32.47-13.44,41.85-22.01-8.05-1.68-24.37-5.57-25.46-15.69-1.85-17.03,27.71-4.7,37.5-4.7,13.18.01,32.8-5.75,42.67-14.79ZM413.82,601.61c.29-13.81-22.29-33.03-34.87-33.94-5.91-.43-32.97,15.92-15.45,21.13,9.61-2.03,26.9-15.18,29.08,1.47l-15.5,5.75c1.66,15.91,25.94,5.41,36.74,5.59Z"/><path d="M515.11,323.34c-16.11-17.54-38.07-35.65-58.09-48.74-6.11-4-33.05-17.84-35.33-21.28-6.85-10.34,2.89-20.32,15.76-15.76,60.42,21.41,129.24,103.62,154.52,161.13,43.38,98.67,30.96,241.37-47.89,319.74-12.27,12.19-25.71,5.45-20.63-10.74,1.03-3.28,18-22.45,21.75-27.78,78.97-112.35,60.8-257.62-30.09-356.57Z"/><path d="M373.95,192.76l.24,12.52c-13.38,3.23-25.38-7.75-26.8-20.67-.58-5.32,2.66-14.29,8.39-11.29,3.41,1.79,7.11,20.1,18.17,19.44Z"/><path d="M367.2,176.84c-.74-20.89,43.09,4.24,22.63,10.8-11.87,3.81-12.5-8.98-22.63-10.8Z"/></svg>