<?xml version="1.0" encoding="UTF-8"?><svg id="a" xmlns="http://www.w3.org/2000/svg" viewBox="0 0 418.08 488.4"><g id="b"><path d="M168.8,367.05v48.01c6.22,0,12.29-.05,18.35.01,9.97.11,16.95,6.23,18.46,16.08,1.56,10.19-7.14,20.41-17.46,20.47-6.34.04-12.68,0-19.53,0,0,6.7.02,13.15,0,19.59-.05,10.18-6.37,16.95-16.64,17.18-3.88.09-8.07-.38-11.62-1.81-5.72-2.31-8.97-7.13-9.17-13.43-.22-6.96-.05-13.94-.05-21.52-6.77,0-13.2-.06-19.62.02-5.53.07-9.94-2.23-13.38-6.34-4.85-5.79-5.76-12.36-2.84-19.27,2.98-7.03,8.72-10.41,16.13-10.89,4.22-.27,8.48.02,12.72.05,2.09.01,4.19,0,6.58,0,.11-2.13.26-3.85.26-5.58.04-12.98.01-25.96.12-38.94.02-2.24-.49-3.3-2.93-3.69-44.69-7.17-79.58-29.74-103.48-68.07-30.65-49.17-33.03-100.44-5.66-151.45,21.03-39.19,54.28-64.18,98.3-73.57,25.46-5.43,50.53-3.95,75.04,5.31,2.1.8,4.93.81,7.09.14,15.36-4.81,30.99-7.6,47.12-6.72,18.67,1.02,36.36,5.82,52.86,14.66,2.35,1.26,3.51,1,5.34-.82,14.05-14.01,28.23-27.88,42.36-41.8.83-.81,1.57-1.72,2.98-3.28-4.7,0-8.38-.01-12.07,0-3.62.01-7.24.09-10.86.08-10.8-.02-14.23-3.39-14.46-14.3-.1-4.74-.02-9.49-.01-14.23.02-7.59,4.9-12.81,12.55-12.84,27.21-.11,54.41-.1,81.62-.02,6.3.02,11.12,4.94,11.14,11.26.07,26.46.07,52.92,0,79.38-.01,5.79-4.72,10.25-10.62,10.34-5.99.1-11.98.13-17.97.08-7.46-.07-11.25-3.68-11.54-11.23-.23-5.98-.14-11.98-.21-17.97-.01-1.09-.1-2.17-.19-4.06-4.49,4.27-8.54,8.04-12.5,11.9-10,9.76-19.89,19.63-29.97,29.31-2.22,2.13-1.93,3.3.09,5.37,21.3,21.88,34.92,47.96,39.96,77.98,6.6,39.26-1.21,75.96-23.06,109.31-22.5,34.35-53.94,55.85-94.48,63.31-20.57,3.79-41,2.12-61.1-3.49-2.86-.8-5.37-.9-8.27.05-6.25,2.05-12.66,3.59-19.38,5.43ZM212.58,350.93c21.04,3.4,40.8,2.7,60.27-3.92,55.26-18.77,91.3-73.97,90.21-131.01-.78-40.92-17.31-74.87-48.58-101.35-20.12-17.04-43.35-26.77-69.88-27.93-24.64-1.08-46.84,6.4-66.64,20.6-29.04,20.82-47.23,48.98-54.07,84.1-6.4,32.84-1.24,64.04,15.21,93.16,3.77,6.68,8.87,12.61,13.46,18.81,2.85,3.85,2.77,7.95-.47,10.65-3.35,2.8-7.31,2.42-10.64-1.05-.6-.63-1.16-1.31-1.71-1.99-18.9-23.54-29.98-50.48-32.23-80.43-3.37-44.83,10.18-84.15,41.28-117.06.78-.83,1.46-1.75,2.19-2.63-.16-.39-.33-.77-.49-1.16-5.89.57-11.82.83-17.65,1.74-57.47,9.01-98.64,63.31-90.52,120.62,5.8,40.95,28.19,70.6,65.76,87.95,37.02,17.1,76.07,8.94,104.01-20.66,18.59-19.69,27.98-43.29,30.12-70.04,1.85-23.11-2.88-44.8-15.33-64.35-5.11-8.04-11.84-15.05-17.92-22.46-3.07-3.75-3.39-7.48-.61-10.42,2.84-3,7.21-3.15,10.72,0,2.4,2.15,4.44,4.71,6.6,7.12,17.09,19.05,27.6,41.37,30.29,66.67,3.99,37.47-5.58,71.59-30.71,100-28.28,31.99-63.98,44.11-105.69,33.16-59.62-15.65-98.94-73.83-91.46-135.03,4.67-38.22,23.84-68.28,56.21-89.04,24.28-15.57,51.04-22.08,79.99-16.69.55.1,1.28.03,1.74-.26,4.09-2.55,8.13-5.17,12.2-7.78-.34-.5-.43-.8-.62-.87-.81-.31-1.63-.6-2.47-.82-16.8-4.38-33.76-4.99-50.8-1.85C52.49,99.98,3.55,169.9,16.9,241.55c7.87,42.24,30.84,74.72,68.3,96.22,24.43,14.02,50.93,19.71,78.88,15.55,27.93-4.16,51.25-17.52,69.75-38.84,19.06-21.97,30.26-47.56,33.93-76.45,3.12-24.58.11-48.29-10.01-70.98-5.53-12.39-12.67-23.75-21.95-33.72-2.36-2.54-3-5.58-1.32-8.6,1.62-2.92,4.68-3.99,7.74-3.24,2.02.49,4.03,1.97,5.52,3.51,2.25,2.31,4.09,5.02,6.04,7.61,18.57,24.8,28.69,52.68,29.29,83.65.67,34.27-8.95,65.71-28.08,94.15-3.86,5.74-8.4,11.03-12.83,16.79.9,0,1.6.07,2.28-.01,10.73-1.33,20.93-4.45,30.61-9.24,40.74-20.13,65.75-65.52,60.66-111.25-3.91-35.16-20.9-62.55-51.22-81.09-31.6-19.31-67.89-16.55-96.53,6.84-36.24,29.6-49.38,78.73-33.16,123.97,4.38,12.22,10.68,23.3,19.16,33.17,3.56,4.14,3.27,8.64-.35,11.56-3.3,2.66-7.27,1.97-10.66-2.22-2.98-3.68-5.88-7.46-8.44-11.43-17.83-27.73-24.23-57.89-18.97-90.48,4.89-30.31,19.06-55.46,42.63-75.06,16.13-13.41,34.82-21.52,55.83-22.98,27.62-1.92,52.19,7.01,72.8,24.89,36.06,31.31,50.13,71.24,41.46,118.24-10.4,56.35-60.26,101.98-119.36,99.41-1.07-.05-2.35.01-3.2.55-4.18,2.67-8.24,5.52-13.14,8.84ZM316.38,97.47c3.08,4.61,4.72,4.88,9.31.54,3.53-3.34,7.07-6.68,10.53-10.09,15.36-15.14,30.7-30.3,46.03-45.47,2.04-2.02,4.19-3.85,7.22-2.57,3.1,1.31,2.96,4.17,2.93,7.02-.11,12.22-.13,24.45-.11,36.67,0,1.65-.4,3.81,2.26,3.91,2.95.1,5.9.02,9.27.02,0-2.21,0-3.68,0-5.14,0-20.96-.01-41.91-.01-62.87,0-5.14.01-5.18-5.09-5.18-22.45,0-44.9,0-67.35.02-1.32,0-2.63.15-4.07.24v12.15c.82.1,1.31.22,1.8.22,14.72-.08,29.43-.18,44.15-.27.75,0,1.63-.27,2.22.03,1.77.91,4.02,1.68,4.9,3.2.53.92-.72,3.53-1.87,4.66-10.02,9.91-20.37,19.48-30.28,29.49-10.69,10.81-21,22.01-31.83,33.41ZM154.52,399.24h.03c0-8.48.17-16.97-.14-25.44-.06-1.69-1.64-4.1-3.12-4.73-1.31-.55-3.85.52-5.13,1.67-.93.84-.94,2.97-.94,4.52-.06,15.46-.05,30.93-.04,46.39,0,7.07-.47,7.57-7.65,7.58-7.86.02-15.71-.02-23.57,0-3.52.01-6.29,1.97-5.84,4.33.6,3.12,3.04,3.87,5.94,3.85,8.11-.06,16.21-.04,24.32-.03,5.64,0,6.77,1.13,6.76,6.82-.02,8.23-.15,16.46-.1,24.69.02,3.6,2.15,5.95,4.89,5.86,3.06-.1,4.62-2.08,4.63-5.93.01-6.98.12-13.97-.03-20.95-.22-9.84-.41-10.69,10.52-10.51,7.11.12,14.22.03,21.32.03,2.57,0,4.56-1.07,4.65-3.77.1-2.81-1.78-4.23-4.52-4.43-.99-.07-1.99-.01-2.99,0-7.61.05-15.21.17-22.82.14-5.14-.02-6.15-1.12-6.16-6.16-.02-7.98,0-15.96,0-23.94Z"/></g></svg>