<?xml version="1.0" encoding="UTF-8"?><svg id="a" xmlns="http://www.w3.org/2000/svg" version="1.1" viewBox="0 0 535.7 899.4"><path d="M307.7,227.4c0,15.1-2.9,25.4-8.6,30.9-5.7,5.5-16.3,8.2-31.7,8.2s-25.5-2.7-31.1-8c-5.6-5.3-8.4-15.4-8.4-30.3s2.9-25.4,8.6-30.9c5.7-5.5,16.3-8.2,31.7-8.2s25.5,2.7,31.1,8c5.6,5.4,8.4,15.4,8.4,30.3ZM300.3,698.2c0,2.1-.5,3.8-1.6,5.3-1,1.4-2.7,2.7-5.1,3.7-2.4,1-5.6,1.8-9.8,2.3-4.2.5-9.5.8-16,.8s-11.5-.3-15.6-.8c-4.2-.5-7.5-1.3-10-2.3-2.5-1-4.2-2.3-5.1-3.7-.9-1.4-1.4-3.2-1.4-5.3v-352c0-1.8.4-3.5,1.4-5.1.9-1.6,2.6-2.9,5.1-3.9,2.5-1,5.8-1.8,10-2.4,4.2-.5,9.4-.8,15.6-.8s11.9.3,16,.8c4.2.5,7.4,1.3,9.8,2.4s4,2.4,5.1,3.9c1,1.6,1.6,3.3,1.6,5.1v352Z"/></svg>
