<?xml version="1.0" encoding="UTF-8"?><svg id="a" xmlns="http://www.w3.org/2000/svg" viewBox="0 0 535.71 540.45"><g id="b"><path d="M348.66,61.51c5.01-6.83,11.47-9.2,19.19-9.16,15.5.08,31-.12,46.49-.05,11,.05,18.76,5.35,21.57,14.61.6,1.98.68,4.17.68,6.27.04,21.62.06,43.25-.03,64.87-.01,2.95.73,5.17,2.92,7.28,27.18,26.18,54.18,52.53,81.43,78.64,17.51,16.78,19.85,42.34,5.01,60.51-7.76,9.5-18.14,13.86-30.21,14.14-9.37.22-18.75-.03-28.12.01-6.77.03-7.93,1.18-7.93,7.78-.01,61.37-.08,122.74.02,184.11.05,28.73-20.58,49.82-49.43,49.85-91.12.09-182.23.12-273.35.07-7.96,0-16.13.19-23.84-1.45-21.87-4.64-36.38-23.21-36.41-45.67-.09-61.99-.06-123.99-.08-185.98,0-7.54-1.1-8.62-8.65-8.68-11.24-.09-22.57.61-33.7-.58-21.4-2.28-36.72-23.59-33.9-45,1.77-13.46,8.72-23.5,18.3-32.51,26.47-24.92,52.7-50.1,79.06-75.14,28.35-26.93,56.78-53.79,85.11-80.74,18.29-17.39,36.44-34.93,54.73-52.32,17.57-16.71,43.3-16.38,60.66.5,16.65,16.19,33.43,32.25,50.47,48.66ZM375.2,82.58c.5,1.04.69,1.49.93,1.92,4.22,7.68,3.32,15.09-2.46,20.12-6.05,5.26-14.98,5.77-21.54,1.1-1.92-1.37-3.73-2.94-5.44-4.58-22.56-21.61-45.06-43.28-67.64-64.87-7.88-7.53-15.59-7.6-23.08-.46-35.58,33.85-71.23,67.62-106.74,101.54-36.95,35.3-73.77,70.74-110.63,106.15-1.7,1.64-3.39,3.38-4.68,5.34-3.08,4.71-3.6,9.78-1.12,14.93,2.42,5.01,6.85,5.91,11.94,5.86,13.12-.12,26.25.15,39.37-.04,14.82-.22,21.86,11.23,21.81,21.71-.32,65.5-.06,130.99-.27,196.49-.04,12.32,7.87,24.16,23.8,23.61,20.35-.7,40.74-.13,61.12-.12,6.23,0,7.33-1.21,7.33-7.47,0-18-.08-36,.13-54,.24-20.6,16.03-36.79,36.47-37.06,22.24-.29,44.5-.33,66.74.03,21.77.35,37.1,16.28,37.3,38.11.08,9.37,0,18.75-.03,28.12-.02,8.5-.08,17-.04,25.5.02,4.98,1.57,6.76,5.91,6.76,21.87,0,43.75-.03,65.62-.11,7.51-.03,13.57-3.3,16.85-9.92,2.08-4.2,3.43-9.23,3.44-13.9.23-64.75.42-129.5,0-194.24-.11-16.56,9.51-23.93,23.59-23.57,12.74.33,25.5.06,38.25.03,8.72-.03,13.46-5.64,12.44-14.32-.66-5.6-4.38-9.08-8.06-12.66-29.74-28.92-59.5-57.82-89.2-86.78-7.3-7.12-7.77-15.71-1.83-23.95,1.01-1.4,1.66-3.39,1.68-5.12.15-12.5.13-25,.11-37.5,0-5.18-1.8-7.04-6.96-7.11-7.12-.08-14.25-.04-21.37,0-1.08,0-2.16.25-3.76.44ZM309.1,511c0-19.37.2-38.34-.1-57.3-.11-7.12-5.94-12.06-13.67-12.11-18.23-.12-36.46-.09-54.68.17-8.61.12-13.33,5.07-13.41,13.69-.14,15.85-.06,31.71-.06,47.57,0,2.59,0,5.18,0,7.98h81.92Z"/><path d="M316.05,215.06c12.19,0,23.42-.13,34.65.06,5.84.1,11.82.1,17.49,1.32,11.2,2.41,19.43,12.96,19.58,24.44.18,14.24.12,28.49.05,42.73-.07,14.57-11.49,26.2-26.16,26.43-13.62.22-27.24.08-40.86.1-1.35,0-2.7,0-4.7,0,0,3.06.01,5.77,0,8.49-.06,11.87-.32,23.74-.13,35.61.25,15.67-12.51,27.51-27.94,27.63-12.87.1-25.74.09-38.61.05-17.27-.04-28.6-11.51-28.55-28.73.03-12.99-.12-25.99.05-38.98.04-3.32-.99-4.22-4.26-4.18-13.12.19-26.24.22-39.36.09-18.17-.18-28.56-10.72-28.59-28.77-.02-12.5-.02-24.99.02-37.49.05-17.63,10.87-28.51,28.51-28.64,12.74-.09,25.49-.08,38.23-.12,1.61,0,3.21,0,5.48,0,0-1.9,0-3.46,0-5.01,0-14.74-.06-29.49,0-44.23.06-16.01,11.41-27.39,27.41-27.46,13.24-.06,26.49-.05,39.73,0,15.56.06,27.26,10.84,27.83,26.41.5,13.6.13,27.23.15,40.85,0,2.97,0,5.94,0,9.38ZM286.85,203.82s-.06,0-.09,0c0-9.37.08-18.74-.03-28.11-.06-5.31-2.78-8.18-8.07-8.31-6.99-.18-13.99-.12-20.98.07-3.96.11-6.67,2.46-7.17,5.85-.27,1.84-.29,3.73-.3,5.6-.06,17.24-.06,34.49-.14,51.73-.03,6.66-2.44,10.49-8.04,12.48-1.94.69-4.15.88-6.23.89-16.24.07-32.49-.02-48.73.06-6.63.03-9.27,2.85-9.29,9.43-.02,5.75,0,11.5,0,17.24,0,8.22,2.47,10.61,10.82,10.61,15.49,0,31,.29,46.48-.09,9.63-.24,15.36,5.3,15.14,15.04-.35,15.98-.05,31.98.09,47.98.06,6.4,2.33,8.58,8.6,8.61,6.62.04,13.25.04,19.87-.02,5.2-.05,7.87-2.58,7.97-7.78.14-7.37.09-14.74.1-22.12,0-9.5-.09-18.99,0-28.49.08-8.44,4.24-12.69,12.57-13.01,2.87-.11,5.74-.11,8.62-.12,13.74-.05,27.49-.03,41.23-.13,7.06-.05,9.36-2.45,9.38-9.53.02-5.87,0-11.75-.04-17.62-.05-7.6-2.51-10.03-10.22-10.04-16.12-.02-32.24.04-48.36-.03-8.77-.04-13.08-4.38-13.17-13.19-.09-9-.02-17.99-.02-26.99Z"/><path d="M198.99,327.25c1.9,1.53,4.69,2.76,5.7,4.85.96,1.99,1.06,5.65-.19,7.21-3.69,4.63-8.02,8.83-12.52,12.72-2.91,2.52-6.91,1.7-9.41-1.04-2.52-2.77-3.06-6.79-.61-9.53,3.81-4.26,7.97-8.22,12.15-12.13.99-.93,2.64-1.16,4.87-2.09Z"/><path d="M337.47,326.97c2.37,1.13,4.22,1.54,5.4,2.66,3.86,3.7,7.63,7.53,11.15,11.57,2.7,3.11,2.31,6.95-.46,9.76-2.93,2.97-6.99,3.44-10.06.65-3.95-3.6-7.69-7.46-11.31-11.41-2.27-2.47-2.38-5.76-.61-8.34,1.4-2.04,3.92-3.31,5.9-4.89Z"/><path d="M187.39,171.88c2.33,1.12,4.15,1.55,5.32,2.65,3.9,3.65,7.73,7.39,11.26,11.4,2.75,3.11,2.35,6.86-.42,9.74-2.83,2.94-7,3.48-10.04.75-3.97-3.56-7.68-7.44-11.32-11.36-2.29-2.46-2.45-5.74-.74-8.32,1.34-2.04,3.91-3.26,5.94-4.85Z"/><path d="M355.84,181.64c-.37.71-.91,2.58-2.1,3.86-3.32,3.54-6.78,6.98-10.42,10.19-3.67,3.23-7.78,3.1-10.71.06-2.79-2.89-2.76-7.44.37-10.79,3.31-3.55,6.8-6.95,10.33-10.29,2.29-2.17,5.12-2.54,7.98-1.29,3.04,1.32,4.46,3.84,4.55,8.27Z"/></g></svg>